<?xml version="1.0" standalone="no"?>
<!DOCTYPE svg PUBLIC "-//W3C//DTD SVG 20010904//EN"
 "http://www.w3.org/TR/2001/REC-SVG-20010904/DTD/svg10.dtd">
<svg version="1.0" xmlns="http://www.w3.org/2000/svg"
 width="170.000000pt" height="60.000000pt" viewBox="0 0 170.000000 60.000000"
 preserveAspectRatio="xMidYMid meet">

<g transform="translate(0.000000,60.000000) scale(0.100000,-0.100000)"
fill="#000000" stroke="none">
<path d="M96 468 c-13 -18 -16 -52 -16 -168 0 -202 -13 -190 200 -190 213 0
200 -12 200 190 0 202 13 190 -200 190 -163 0 -169 -1 -184 -22z m113 -68 c16
-8 19 -23 19 -88 0 -102 -2 -106 -70 -103 l-28 1 0 100 0 100 31 0 c17 0 38
-4 48 -10z m116 -6 c11 -11 15 -30 13 -57 -3 -35 -7 -42 -28 -47 -20 -5 -26
-13 -28 -43 -3 -29 -7 -37 -23 -37 -17 0 -19 8 -19 93 0 52 3 97 7 100 12 13
62 7 78 -9z m115 -4 c0 -11 -7 -20 -15 -20 -12 0 -15 -16 -15 -84 0 -79 -1
-84 -20 -79 -18 5 -20 14 -20 84 0 46 -4 79 -10 79 -5 0 -10 9 -10 20 0 17 7
20 45 20 38 0 45 -3 45 -20z"/>
<path d="M170 356 c0 -14 5 -26 10 -26 6 0 10 9 10 19 0 11 -4 23 -10 26 -6 4
-10 -5 -10 -19z"/>
<path d="M170 270 c0 -16 5 -30 10 -30 6 0 10 14 10 30 0 17 -4 30 -10 30 -5
0 -10 -13 -10 -30z"/>
<path d="M280 351 c0 -11 5 -23 10 -26 6 -4 10 5 10 19 0 14 -4 26 -10 26 -5
0 -10 -9 -10 -19z"/>
<path d="M530 322 c0 -56 2 -60 20 -55 18 5 21 12 18 57 -2 39 -7 52 -20 54
-16 3 -18 -5 -18 -56z m30 23 c0 -8 -4 -15 -10 -15 -5 0 -10 7 -10 15 0 8 5
15 10 15 6 0 10 -7 10 -15z m0 -50 c0 -8 -4 -15 -10 -15 -5 0 -10 7 -10 15 0
8 5 15 10 15 6 0 10 -7 10 -15z"/>
<path d="M730 365 c0 -8 -7 -15 -15 -15 -7 0 -19 -8 -24 -17 -10 -17 -10 -17
-11 -1 0 11 -7 16 -20 15 -17 -1 -20 -8 -18 -47 1 -40 2 -41 5 -10 6 52 23 62
24 15 1 -34 2 -36 8 -15 l8 25 4 -24 c3 -17 11 -25 27 -26 20 -2 22 2 22 57 0
32 -2 58 -5 58 -3 0 -5 -7 -5 -15z m0 -61 c0 -13 -4 -24 -10 -24 -5 0 -10 14
-10 31 0 17 4 28 10 24 6 -3 10 -17 10 -31z"/>
<path d="M917 374 c-11 -11 -8 -104 3 -104 6 0 10 7 10 15 0 7 7 18 16 23 20
11 15 66 -6 70 -9 1 -19 0 -23 -4z m20 -46 c-3 -7 -5 -2 -5 12 0 14 2 19 5 13
2 -7 2 -19 0 -25z"/>
<path d="M1050 366 c0 -9 -7 -16 -15 -16 -11 0 -15 -11 -15 -38 0 -45 4 -52
31 -45 15 4 19 14 19 54 0 26 -4 51 -10 54 -5 3 -10 -1 -10 -9z m0 -56 c0 -16
-4 -30 -10 -30 -11 0 -14 43 -3 53 11 12 13 8 13 -23z"/>
<path d="M1130 325 c0 -30 5 -55 10 -55 6 0 10 25 10 55 0 30 -4 55 -10 55 -5
0 -10 -25 -10 -55z"/>
<path d="M1180 370 c0 -5 4 -10 9 -10 6 0 12 -21 14 -47 l3 -48 2 48 c1 26 7
47 12 47 6 0 10 5 10 10 0 6 -11 10 -25 10 -14 0 -25 -4 -25 -10z"/>
<path d="M1330 369 c0 -5 5 -7 10 -4 6 3 10 8 10 11 0 2 -4 4 -10 4 -5 0 -10
-5 -10 -11z"/>
<path d="M585 339 c-4 -6 -4 -13 0 -17 3 -3 10 0 15 8 8 12 10 12 10 1 0 -8
-7 -19 -17 -26 -20 -15 -11 -44 14 -41 29 4 27 86 -2 86 -8 0 -17 -5 -20 -11z
m25 -49 c0 -5 -5 -10 -11 -10 -5 0 -7 5 -4 10 3 6 8 10 11 10 2 0 4 -4 4 -10z"/>
<path d="M757 343 c-10 -10 -8 -71 2 -77 12 -8 41 4 41 16 0 6 -7 8 -15 4 -20
-7 -19 4 2 19 9 7 14 19 10 29 -6 16 -28 22 -40 9z"/>
<path d="M810 301 c0 -30 -5 -51 -12 -54 -8 -3 -6 -6 5 -6 14 -1 17 8 17 54 0
30 -2 55 -5 55 -3 0 -5 -22 -5 -49z"/>
<path d="M837 343 c-14 -13 -6 -25 8 -13 12 10 15 10 15 0 0 -7 -7 -18 -17
-25 -20 -15 -11 -44 14 -41 20 3 28 26 19 62 -6 23 -25 32 -39 17z m23 -53 c0
-5 -5 -10 -11 -10 -5 0 -7 5 -4 10 3 6 8 10 11 10 2 0 4 -4 4 -10z"/>
<path d="M970 333 c0 -14 2 -15 9 -4 5 7 11 9 14 4 3 -5 -3 -17 -13 -26 -23
-20 -17 -43 11 -43 17 0 20 6 17 41 -2 29 -8 41 -20 43 -12 2 -18 -3 -18 -15z
m30 -37 c0 -3 -4 -8 -10 -11 -5 -3 -10 -1 -10 4 0 6 5 11 10 11 6 0 10 -2 10
-4z"/>
<path d="M1082 308 c2 -30 8 -43 18 -43 10 0 16 13 18 43 3 37 1 42 -18 42
-19 0 -21 -5 -18 -42z m28 22 c0 -5 -5 -10 -11 -10 -5 0 -7 5 -4 10 3 6 8 10
11 10 2 0 4 -4 4 -10z m0 -40 c0 -5 -4 -10 -10 -10 -5 0 -10 5 -10 10 0 6 5
10 10 10 6 0 10 -4 10 -10z"/>
<path d="M1241 306 c2 -34 3 -36 6 -11 3 17 9 35 14 41 5 7 3 11 -6 11 -11 0
-15 -11 -14 -41z"/>
<path d="M1280 333 c0 -14 2 -15 9 -4 5 7 11 9 14 4 3 -5 -3 -17 -14 -26 -23
-20 -17 -37 12 -37 17 0 20 6 17 37 -2 27 -8 39 -20 41 -12 2 -18 -3 -18 -15z
m30 -43 c0 -5 -4 -10 -10 -10 -5 0 -10 5 -10 10 0 6 5 10 10 10 6 0 10 -4 10
-10z"/>
<path d="M1330 311 c0 -23 5 -41 10 -41 6 0 10 15 10 34 0 19 -4 38 -10 41 -6
4 -10 -10 -10 -34z"/>
<path d="M1363 310 c0 -25 2 -35 4 -22 2 12 2 32 0 45 -2 12 -4 2 -4 -23z"/>
<path d="M1388 313 c5 -59 10 -63 11 -10 1 26 -3 47 -7 47 -4 0 -6 -17 -4 -37z"/>
<path d="M1423 305 c0 -27 2 -38 4 -22 2 15 2 37 0 50 -2 12 -4 0 -4 -28z"/>
<path d="M1440 310 c0 -51 17 -53 23 -2 l4 37 1 -37 c3 -51 22 -49 22 2 0 36
-2 40 -25 40 -22 0 -25 -4 -25 -40z"/>
<path d="M1505 338 c-3 -7 -4 -31 -2 -53 3 -32 8 -41 25 -43 26 -4 30 23 5 32
-15 6 -15 8 2 19 9 8 16 22 13 33 -4 22 -36 31 -43 12z m21 -35 c-11 -11 -19
6 -11 24 8 17 8 17 12 0 3 -10 2 -21 -1 -24z m9 -43 c3 -5 -1 -10 -10 -10 -9
0 -13 5 -10 10 3 6 8 10 10 10 2 0 7 -4 10 -10z"/>
</g>
</svg>
